<svg width="500" height="372" viewBox="0 0 500 372" fill="none" xmlns="http://www.w3.org/2000/svg">
<g clip-path="url(#clip0_2_39)">
<path d="M30.17 301.488C30.7851 324.445 34.6311 347.201 41.5945 369.086C41.7488 369.593 41.9202 370.094 42.087 370.602H84.7172C84.6724 370.146 84.6261 369.638 84.5813 369.086C81.7391 336.409 97.9772 139.897 117.572 105.886C115.855 108.645 26.8647 197.659 30.17 301.488Z" fill="#E6E6E6"/>
<path d="M33.369 369.086C33.7256 369.593 34.0961 370.102 34.4759 370.602H66.4582C66.2158 370.169 65.9349 369.661 65.6091 369.086C60.3261 359.551 44.6885 331.042 30.1733 301.488C14.5804 269.728 0.2628 236.764 1.46853 224.833C1.09486 227.523 -9.69966 309.553 33.369 369.086Z" fill="#E6E6E6"/>
<path d="M170.139 254.112C170.037 254.486 169.966 254.868 169.925 255.254L139.129 271.428L131.978 266.925L123.772 276.828L135.656 286.03C136.616 286.774 137.791 287.186 139.005 287.204C140.219 287.223 141.407 286.847 142.389 286.133L174.407 262.874C175.787 263.448 177.31 263.588 178.772 263.276C180.234 262.964 181.566 262.214 182.592 261.126C183.618 260.038 184.288 258.664 184.513 257.185C184.738 255.707 184.508 254.196 183.854 252.852C183.199 251.507 182.15 250.395 180.848 249.661C179.545 248.927 178.05 248.607 176.561 248.744C175.072 248.881 173.66 249.468 172.513 250.426C171.366 251.385 170.537 252.671 170.139 254.112V254.112Z" fill="#9E616A"/>
<path d="M207.268 363.702L213.443 359.73L201.064 334.024L191.951 339.885L207.268 363.702Z" fill="#9E616A"/>
<path d="M204.397 362.699L216.557 354.878L216.557 354.878C218.612 353.556 221.109 353.105 223.496 353.624C225.884 354.143 227.968 355.589 229.29 357.644L229.452 357.896L209.542 370.7L204.397 362.699Z" fill="#2F2E41"/>
<path d="M118.305 319.546L165.704 289.199C165.704 289.199 174.413 288.359 179.639 298.66L211.207 344.004L197.739 353.117L162.71 316.745L138.673 340.517C138.673 340.517 174.087 334.709 172.889 358.063C171.939 376.597 123.469 370.239 103.502 366.826C99.7092 366.207 96.0993 364.76 92.9284 362.59C89.7575 360.419 87.1032 357.577 85.154 354.265C83.0125 350.551 81.8613 346.334 83.66 342.347C88.4566 331.715 118.305 319.546 118.305 319.546Z" fill="#2F2E41"/>
<path d="M94.8082 344.908L81.1488 342.144L85.0413 275.103L100.758 255.852L110.122 254.194C112.914 253.688 115.793 254.249 118.191 255.766C120.588 257.283 122.328 259.645 123.065 262.385L127.193 277.463C134.196 289.32 124.385 303.068 123.481 304.29L123.99 325.084L94.8082 344.908Z" fill="#FFD7D7"/>
<path d="M107.527 258.478L108.393 255.412C108.393 255.412 117.799 248.48 132.17 266.444L125.284 278.72L110.313 278.121L107.527 258.478Z" fill="#FFD7D7"/>
<path d="M129.162 234.62C131.827 245.542 121.324 246.354 108.866 249.393C96.4069 252.432 86.7102 256.548 84.0458 245.625C81.3814 234.703 81.592 214.138 99.2168 209.839C117.449 205.391 126.498 223.697 129.162 234.62Z" fill="#2F2E41"/>
<path d="M105.083 249.838C113.712 249.838 120.707 242.843 120.707 234.214C120.707 225.584 113.712 218.589 105.083 218.589C96.4535 218.589 89.4581 225.584 89.4581 234.214C89.4581 242.843 96.4535 249.838 105.083 249.838Z" fill="#9E616A"/>
<path d="M87.181 237.003L93.1848 235.538L94.0243 227.476L96.3631 234.763L99.2326 234.063L99.7224 229.36L101.087 233.611L122.409 228.409C121.369 224.148 118.679 220.473 114.931 218.195C111.182 215.917 106.682 215.221 102.42 216.26L99.3301 217.014C97.2199 217.529 95.2317 218.454 93.4792 219.737C91.7266 221.02 90.2439 222.636 89.1157 224.492C87.9876 226.348 87.2361 228.409 86.9041 230.555C86.5721 232.702 86.6662 234.893 87.181 237.003Z" fill="#2F2E41"/>
<path d="M131.842 311.478C131.466 311.576 131.099 311.704 130.743 311.859L101.43 293.132L101.796 284.689L89.127 282.472L87.0266 297.355C86.8569 298.557 87.0818 299.782 87.6676 300.846C88.2533 301.909 89.1683 302.754 90.2751 303.253L126.348 319.529C126.533 321.012 127.166 322.404 128.162 323.519C129.158 324.634 130.47 325.42 131.924 325.771C133.377 326.122 134.903 326.023 136.298 325.486C137.693 324.949 138.892 323.999 139.735 322.764C140.578 321.529 141.025 320.067 141.016 318.572C141.007 317.077 140.544 315.62 139.687 314.395C138.83 313.169 137.62 312.234 136.219 311.713C134.818 311.192 133.291 311.11 131.842 311.478V311.478Z" fill="#9E616A"/>
<path d="M103.129 258.912L100.92 256.127C100.92 256.127 92.0495 253.27 87.2589 265.247C82.4684 277.223 86.9595 288.9 86.9595 288.9L107.918 290.696L109.415 271.235L103.129 258.912Z" fill="#FFD7D7"/>
<path d="M336.337 83.3593H500V137.087H493.801V151.139L479.749 137.087H336.337V83.3593Z" fill="#E6E6E6"/>
<path d="M495.454 88.591H340.883V131.573H495.454V88.591Z" fill="white"/>
<path d="M427.735 101.14H353.313V103.398H427.735V101.14Z" fill="#FFD7D7"/>
<path d="M483.024 108.953H353.313V111.211H483.024V108.953Z" fill="#E6E6E6"/>
<path d="M482.897 116.766H353.313V119.024H482.897V116.766Z" fill="#E6E6E6"/>
<path d="M402.18 0H238.517V53.7277H244.716V67.7799L258.768 53.7277H402.18V0Z" fill="#E6E6E6"/>
<path d="M397.634 5.23212H243.063V48.2143H397.634V5.23212Z" fill="white"/>
<path d="M331.155 18.1943H256.733V20.4529H331.155V18.1943Z" fill="#FFD7D7"/>
<path d="M386.444 26.0073H256.733V28.2658H386.444V26.0073Z" fill="#E6E6E6"/>
<path d="M386.317 33.8201H256.733V36.0786H386.317V33.8201Z" fill="#E6E6E6"/>
<path d="M199.567 242.164H199.277V234.226C199.277 233.623 199.158 233.026 198.927 232.469C198.696 231.911 198.358 231.405 197.931 230.978C197.505 230.552 196.998 230.213 196.441 229.982C195.884 229.752 195.286 229.633 194.683 229.633H177.867C177.264 229.633 176.667 229.752 176.109 229.982C175.552 230.213 175.045 230.552 174.619 230.978C174.192 231.405 173.854 231.911 173.623 232.468C173.392 233.026 173.273 233.623 173.273 234.226V277.77C173.273 278.373 173.392 278.971 173.623 279.528C173.854 280.086 174.192 280.592 174.619 281.018C175.045 281.445 175.552 281.783 176.109 282.014C176.667 282.245 177.264 282.364 177.867 282.364H194.683C195.286 282.364 195.884 282.245 196.441 282.014C196.998 281.783 197.505 281.445 197.931 281.018C198.358 280.592 198.696 280.086 198.927 279.528C199.158 278.971 199.277 278.373 199.277 277.77V247.813H199.567V242.164Z" fill="#3F3D56"/>
<path d="M194.868 230.828H192.673C192.774 231.075 192.813 231.344 192.786 231.61C192.758 231.876 192.666 232.131 192.517 232.353C192.368 232.574 192.167 232.756 191.931 232.882C191.695 233.008 191.432 233.073 191.164 233.073H181.531C181.263 233.073 181 233.008 180.764 232.882C180.529 232.756 180.327 232.574 180.178 232.353C180.029 232.131 179.937 231.876 179.909 231.61C179.882 231.344 179.921 231.075 180.022 230.828H177.972C177.062 230.828 176.189 231.189 175.546 231.833C174.902 232.476 174.541 233.349 174.541 234.258V277.738C174.541 278.189 174.63 278.635 174.802 279.051C174.974 279.467 175.227 279.846 175.546 280.164C175.864 280.483 176.242 280.735 176.659 280.908C177.075 281.08 177.521 281.169 177.972 281.169H194.868C195.319 281.169 195.765 281.08 196.181 280.908C196.597 280.735 196.976 280.483 197.294 280.164C197.613 279.846 197.865 279.467 198.038 279.051C198.21 278.635 198.299 278.189 198.299 277.738V277.738V234.258C198.299 233.808 198.21 233.362 198.038 232.946C197.865 232.529 197.613 232.151 197.294 231.833C196.976 231.514 196.597 231.261 196.181 231.089C195.765 230.917 195.319 230.828 194.868 230.828V230.828Z" fill="white"/>
<path d="M381.768 158.542H180.798V224.517H188.41V241.771L205.665 224.517H381.768V158.542Z" fill="white"/>
<path d="M187.773 243.311V225.155H180.16V157.904H382.406V225.155H205.93L187.773 243.311ZM181.436 223.879H189.048V240.232L205.401 223.879H381.13V159.179H181.436L181.436 223.879Z" fill="#3F3D56"/>
<path d="M294.553 180.883H203.166V183.657H294.553V180.883Z" fill="#FFD7D7"/>
<path d="M362.445 190.477H203.166V193.251H362.445V190.477Z" fill="#E6E6E6"/>
<path d="M362.289 200.071H203.166V202.844H362.289V200.071Z" fill="#E6E6E6"/>
<path d="M273.577 371.24H30.5488C30.3796 371.24 30.2174 371.172 30.0978 371.053C29.9781 370.933 29.9109 370.771 29.9109 370.602C29.9109 370.433 29.9781 370.27 30.0978 370.151C30.2174 370.031 30.3796 369.964 30.5488 369.964H273.577C273.746 369.964 273.908 370.031 274.028 370.151C274.147 370.27 274.215 370.433 274.215 370.602C274.215 370.771 274.147 370.933 274.028 371.053C273.908 371.172 273.746 371.24 273.577 371.24Z" fill="#3F3D56"/>
</g>
<defs>
<clipPath id="clip0_2_39">
<rect width="500" height="371.24" fill="white"/>
</clipPath>
</defs>
</svg>
