<svg width="500" height="360" viewBox="0 0 500 360" fill="none" xmlns="http://www.w3.org/2000/svg">
<g clip-path="url(#clip0_2_71)">
<path d="M67.9039 357.979C67.8979 357.997 67.8979 358.021 67.8919 358.039H29.2109C28.4828 357.58 27.7666 357.102 27.0623 356.619C22.7133 353.672 18.697 350.262 15.0838 346.449C10.9419 342.035 7.51994 336.998 4.94354 331.522C-0.159419 320.635 -1.7291 308.251 2.22196 297.06C2.22194 297.06 2.22208 297.059 2.22237 297.058C2.22267 297.057 2.22311 297.057 2.22367 297.056C2.22422 297.055 2.22489 297.055 2.22562 297.055C2.22636 297.054 2.22714 297.054 2.22793 297.054C2.32342 296.774 2.43086 296.487 2.53829 296.201C2.69943 296.481 2.85461 296.756 3.02172 297.03L3.02769 297.036C5.24537 300.768 7.76023 304.315 10.5478 307.642V307.648C10.7627 307.905 10.9776 308.161 11.1984 308.412C11.1984 308.413 11.1985 308.414 11.1988 308.414C11.1991 308.415 11.1995 308.416 11.2001 308.416C11.2007 308.417 11.2013 308.417 11.202 308.418C11.2028 308.418 11.2036 308.418 11.2044 308.418C17.9731 316.331 26.1508 322.92 35.3225 327.851C35.3524 327.869 35.3763 327.881 35.4061 327.899C35.4367 327.917 35.4686 327.933 35.5016 327.947C35.5076 327.953 35.5135 327.953 35.5195 327.959C37.5547 329.057 39.6436 330.059 41.7684 330.967V330.973C43.4395 331.695 45.1405 332.351 46.8534 332.96C50.5061 334.243 54.4452 335.413 57.9427 337.102C61.3446 338.743 64.3408 340.874 66.2924 344.079C66.4416 344.342 66.5908 344.598 66.7281 344.861L65.5881 352.751L67.8621 352.739L67.6472 356.619L67.5876 357.741L67.9039 357.979Z" fill="#F0F0F0"/>
<path d="M58.3545 358.039H57.5368C57.4592 357.562 57.3816 357.09 57.2921 356.619C57.0603 355.328 56.7453 354.055 56.3491 352.805C56.1701 352.244 55.9672 351.695 55.7344 351.152C54.4154 348.06 52.1474 345.344 48.7932 344.437C47.8168 344.178 46.813 344.036 45.803 344.013C43.8036 343.93 41.7744 344.187 39.7869 344.294C39.2975 344.318 38.8022 344.336 38.3247 344.33H38.3128C35.728 344.373 33.1646 343.855 30.7986 342.814C27.8765 341.415 25.2159 339.525 22.9322 337.227C21.438 335.797 20.0176 334.291 18.6768 332.715V332.709C18.4977 332.512 18.3247 332.31 18.1516 332.101C14.9916 328.303 12.2297 324.191 9.90929 319.83C8.72626 317.625 7.66431 315.358 6.72814 313.038C6.71573 313.017 6.70572 312.995 6.6983 312.972C4.60383 307.856 3.10195 302.518 2.22202 297.06C2.222 297.06 2.22215 297.059 2.22244 297.058C2.22273 297.057 2.22317 297.057 2.22372 297.056C2.22428 297.056 2.22495 297.055 2.22568 297.055C2.22641 297.055 2.22721 297.054 2.228 297.054C2.18028 296.81 2.14446 296.559 2.10862 296.314C2.03103 295.807 2.83677 295.783 2.90839 296.29C2.9442 296.541 2.98 296.78 3.02178 297.03L3.02775 297.036C3.87465 302.262 5.29576 307.378 7.26529 312.292V312.298C7.36678 312.548 7.46822 312.793 7.56969 313.038C10.3712 319.833 14.2064 326.155 18.9394 331.778L18.9454 331.79C18.9931 331.85 19.0469 331.904 19.1006 331.963C19.1028 331.966 19.1045 331.969 19.1056 331.972C19.1066 331.975 19.1069 331.978 19.1065 331.981C19.1125 331.975 19.1125 331.981 19.1125 331.981C20.2167 333.288 21.3745 334.542 22.5801 335.759C24.8094 338.115 27.3955 340.105 30.2435 341.656C32.6217 342.874 35.2529 343.516 37.9248 343.53C38.1934 343.53 38.462 343.536 38.7305 343.53C38.9454 343.53 39.1603 343.524 39.3751 343.512C41.3984 343.417 43.4515 343.16 45.4867 343.196C46.4123 343.214 47.3347 343.31 48.2441 343.482C49.738 343.803 51.1472 344.435 52.3795 345.338C53.6117 346.241 54.6391 347.395 55.3942 348.723C56.1534 350.006 56.7584 351.374 57.1967 352.799C57.3459 353.265 57.4712 353.736 57.5966 354.213V354.219C57.7876 354.983 57.9547 355.759 58.0979 356.541C58.1048 356.566 58.1088 356.593 58.1099 356.619C58.1993 357.09 58.2769 357.568 58.3545 358.039Z" fill="white"/>
<path d="M18.983 332.492C16.9373 334.015 14.4165 334.762 11.8709 334.599C9.32533 334.435 6.92071 333.372 5.08648 331.6C4.71658 331.24 5.25854 330.648 5.62894 331.008C7.33392 332.662 9.57394 333.652 11.9447 333.799C14.3154 333.947 16.6607 333.242 18.5573 331.812C18.9698 331.501 19.3932 332.183 18.983 332.492Z" fill="white"/>
<path d="M37.891 343.776C38.6919 338.624 37.5214 333.359 34.6127 329.031C34.3242 328.602 35.0045 328.177 35.2927 328.605C38.311 333.115 39.518 338.596 38.6728 343.956C38.5919 344.467 37.8105 344.284 37.891 343.776V343.776Z" fill="white"/>
<path d="M7.04891 312.404C7.96331 311.98 8.75794 311.335 9.36144 310.527C9.96494 309.72 10.3584 308.775 10.5065 307.778C10.5809 307.266 11.3622 307.449 11.2883 307.957C11.1195 309.058 10.6837 310.101 10.0189 310.995C9.35413 311.889 8.48059 312.606 7.47461 313.084C7.38357 313.137 7.27574 313.154 7.17305 313.13C7.07037 313.106 6.98054 313.045 6.9218 312.957C6.86589 312.867 6.84787 312.758 6.87167 312.655C6.89548 312.551 6.95918 312.461 7.04892 312.404H7.04891Z" fill="white"/>
<path d="M73.7409 331.784L73.4127 334.81L68.1904 334.733L67.4025 340.188L67.2653 341.125V341.131L66.7281 344.861L65.5881 352.751L67.8621 352.739L67.6472 356.619L67.5876 357.741L67.9039 357.979L67.9755 358.039L67.9994 358.057C67.9337 358.188 67.8621 358.32 67.7905 358.457C67.8323 358.314 67.8621 358.182 67.8919 358.039H52.78C52.4995 357.568 52.225 357.096 51.9564 356.619C49.6244 352.56 47.5686 348.349 45.803 344.013C45.6956 343.745 45.5822 343.476 45.4867 343.202V343.196C43.9168 339.229 42.6732 335.141 41.7684 330.973V330.967C41.278 328.683 40.9055 326.377 40.6523 324.055C40.0053 318.055 40.3054 311.991 41.5416 306.084C41.5516 306.055 41.5596 306.025 41.5655 305.995C43.9468 294.721 49.7541 284.3 58.9513 277.699C59.3333 277.412 59.7272 277.144 60.1271 276.881C60.1331 276.875 60.1331 276.875 60.139 276.875C60.1398 276.875 60.1406 276.875 60.1413 276.875C60.1421 276.875 60.1427 276.874 60.1433 276.874C60.1438 276.873 60.1443 276.872 60.1446 276.872C60.1449 276.871 60.145 276.87 60.145 276.869C60.3957 276.708 60.6404 276.547 60.891 276.386C60.8552 276.708 60.8135 277.03 60.7836 277.353C60.3013 281.664 60.1736 286.008 60.4016 290.34V290.352C60.4076 290.686 60.4255 291.02 60.4494 291.36V291.372C61.1 301.782 63.672 311.98 68.0352 321.453C68.0426 321.478 68.0526 321.502 68.065 321.525C68.077 321.554 68.0889 321.578 68.1009 321.608C69.733 325.132 71.618 328.533 73.7409 331.784V331.784Z" fill="#F0F0F0"/>
<path d="M61.1407 276.68C61.0211 276.9 60.8966 277.127 60.784 277.353C59.8926 279.038 59.0722 280.76 58.3226 282.517C56.9829 285.622 55.8686 288.819 54.9883 292.083C54.917 292.338 54.8467 292.598 54.7822 292.857C52.9219 299.98 52.1778 307.348 52.5762 314.698C52.5766 314.771 52.5818 314.837 52.5881 314.908C52.683 316.624 52.8476 318.334 53.0818 320.038C53.4424 323.26 54.3078 326.406 55.6464 329.359C55.8338 329.745 56.0319 330.122 56.2398 330.486C56.7571 331.377 57.3577 332.217 58.0333 332.994C58.5204 333.563 59.0453 334.098 59.6044 334.595C59.9415 334.901 60.2894 335.198 60.6529 335.481C60.8627 335.645 61.0784 335.808 61.2941 335.97C61.4723 336.091 61.6456 336.219 61.8238 336.34C63.6768 337.608 65.6753 338.736 67.4027 340.189L67.267 341.127C65.5835 339.612 63.5516 338.465 61.683 337.212C60.512 336.437 59.4157 335.555 58.4082 334.577C58.2761 334.442 58.138 334.308 58.0107 334.167C57.3289 333.464 56.7132 332.7 56.1713 331.885C55.8955 331.478 55.6353 331.057 55.3898 330.614C53.9062 327.738 52.9218 324.631 52.4786 321.425C52.1466 319.38 51.9178 317.319 51.7931 315.251C51.7711 314.982 51.7561 314.718 51.7459 314.448C51.5122 309.514 51.7826 304.569 52.5529 299.69C53.5255 293.501 55.2885 287.463 57.7985 281.723C58.5154 280.08 59.2972 278.462 60.1438 276.869C60.2516 276.651 60.3663 276.438 60.4859 276.217C60.7289 275.763 61.3837 276.226 61.1407 276.68Z" fill="white"/>
<path d="M52.1741 315.262C49.6233 315.247 47.161 314.325 45.2268 312.662C43.2927 310.999 42.0127 308.703 41.6154 306.183C41.5368 305.673 42.3258 305.527 42.4045 306.038C42.7701 308.385 43.9627 310.524 45.7669 312.069C47.5711 313.614 49.8682 314.463 52.2435 314.463C52.7597 314.463 52.6873 315.262 52.1741 315.262V315.262Z" fill="white"/>
<path d="M60.4768 335.656C64.2185 332.024 66.4538 327.116 66.737 321.909C66.7647 321.393 67.5638 321.463 67.5362 321.978C67.2313 327.396 64.8948 332.499 60.9928 336.27C60.6206 336.629 60.1067 336.013 60.4768 335.656H60.4768Z" fill="white"/>
<path d="M54.7392 292.038C55.725 292.25 56.7478 292.213 57.7159 291.932C58.684 291.65 59.567 291.133 60.2856 290.426C60.653 290.062 61.1666 290.679 60.8016 291.04C60.004 291.817 59.0281 292.388 57.9592 292.701C56.8903 293.014 55.7609 293.061 54.6698 292.837C54.5652 292.825 54.4692 292.773 54.4014 292.692C54.3337 292.612 54.2992 292.508 54.3049 292.403C54.3146 292.297 54.3657 292.2 54.4471 292.131C54.5284 292.063 54.6334 292.03 54.7392 292.038H54.7392Z" fill="white"/>
<path d="M178.235 358.523C178.235 358.616 178.217 358.708 178.182 358.795C178.146 358.881 178.094 358.959 178.028 359.025C177.962 359.091 177.883 359.144 177.797 359.179C177.711 359.215 177.618 359.233 177.525 359.233H10.2375C10.1442 359.233 10.0519 359.214 9.96569 359.179C9.87952 359.143 9.80123 359.091 9.73527 359.025C9.66932 358.959 9.617 358.881 9.58131 358.794C9.54562 358.708 9.52725 358.616 9.52725 358.523C9.52725 358.429 9.54562 358.337 9.58131 358.251C9.617 358.165 9.66932 358.086 9.73527 358.02C9.80123 357.954 9.87952 357.902 9.96569 357.866C10.0519 357.831 10.1442 357.812 10.2375 357.812H177.525C177.618 357.812 177.711 357.83 177.797 357.866C177.883 357.901 177.962 357.954 178.028 358.02C178.094 358.086 178.146 358.164 178.182 358.25C178.217 358.337 178.235 358.429 178.235 358.523V358.523Z" fill="#CCCCCC"/>
<path d="M467.744 66.2001H359.588C359.124 66.2007 358.665 66.1099 358.236 65.9329C357.808 65.7559 357.418 65.4961 357.09 65.1685C356.762 64.8409 356.502 64.4519 356.325 64.0236C356.147 63.5954 356.056 63.1363 356.056 62.6727C356.056 62.2091 356.147 61.7501 356.325 61.3218C356.502 60.8935 356.762 60.5045 357.09 60.1769C357.418 59.8493 357.808 59.5896 358.236 59.4126C358.665 59.2356 359.124 59.1448 359.588 59.1454H467.744C468.208 59.1448 468.667 59.2356 469.095 59.4126C469.524 59.5896 469.913 59.8493 470.241 60.1769C470.569 60.5045 470.83 60.8935 471.007 61.3218C471.185 61.7501 471.276 62.2091 471.276 62.6727C471.276 63.1363 471.185 63.5954 471.007 64.0236C470.83 64.4519 470.569 64.8409 470.241 65.1685C469.913 65.4961 469.524 65.7559 469.095 65.9329C468.667 66.1099 468.208 66.2007 467.744 66.2001Z" fill="#FFD7D7"/>
<path d="M467.744 80.1383H359.588C358.653 80.1371 357.757 79.7649 357.096 79.1035C356.436 78.4421 356.065 77.5456 356.065 76.6108C356.065 75.6761 356.436 74.7795 357.096 74.1181C357.757 73.4567 358.653 73.0845 359.588 73.0833H467.744C468.679 73.0845 469.575 73.4567 470.236 74.1181C470.896 74.7795 471.267 75.6761 471.267 76.6108C471.267 77.5456 470.896 78.4421 470.236 79.1035C469.575 79.7649 468.679 80.1371 467.744 80.1383V80.1383Z" fill="#FFD7D7"/>
<path d="M406.471 94.0767H359.588C358.653 94.0754 357.757 93.7032 357.096 93.0418C356.436 92.3804 356.065 91.4839 356.065 90.5491C356.065 89.6144 356.436 88.7178 357.096 88.0564C357.757 87.395 358.653 87.0228 359.588 87.0216H406.471C406.935 87.021 407.394 87.1118 407.822 87.2888C408.251 87.4658 408.64 87.7255 408.968 88.0532C409.296 88.3808 409.557 88.7699 409.734 89.1981C409.912 89.6264 410.003 90.0855 410.003 90.5491C410.003 91.0128 409.912 91.4718 409.734 91.9001C409.557 92.3284 409.296 92.7175 408.968 93.0451C408.64 93.3727 408.251 93.6325 407.822 93.8095C407.394 93.9865 406.935 94.0773 406.471 94.0767V94.0767Z" fill="#FFD7D7"/>
<path d="M467.744 145.468H359.588C358.652 145.468 357.755 145.097 357.093 144.435C356.432 143.774 356.06 142.876 356.06 141.941C356.06 141.005 356.432 140.108 357.093 139.447C357.755 138.785 358.652 138.414 359.588 138.414H467.744C468.68 138.414 469.577 138.785 470.238 139.447C470.9 140.108 471.272 141.005 471.272 141.941C471.272 142.876 470.9 143.774 470.238 144.435C469.577 145.097 468.68 145.468 467.744 145.468Z" fill="#E6E6E6"/>
<path d="M467.744 159.407H359.588C358.652 159.407 357.755 159.035 357.093 158.373C356.432 157.712 356.06 156.815 356.06 155.879C356.06 154.943 356.432 154.046 357.093 153.385C357.755 152.723 358.652 152.351 359.588 152.351H467.744C468.68 152.351 469.577 152.723 470.239 153.385C470.9 154.046 471.272 154.943 471.272 155.879C471.272 156.815 470.9 157.712 470.239 158.373C469.577 159.035 468.68 159.407 467.744 159.407V159.407Z" fill="#E6E6E6"/>
<path d="M406.471 173.345H359.588C358.652 173.345 357.755 172.973 357.093 172.312C356.432 171.65 356.06 170.753 356.06 169.817C356.06 168.882 356.432 167.985 357.093 167.323C357.755 166.661 358.652 166.29 359.588 166.29H406.471C406.935 166.289 407.394 166.38 407.822 166.557C408.251 166.734 408.64 166.994 408.968 167.321C409.296 167.649 409.557 168.038 409.734 168.466C409.912 168.895 410.003 169.354 410.003 169.817C410.003 170.281 409.912 170.74 409.734 171.168C409.557 171.597 409.296 171.986 408.968 172.313C408.64 172.641 408.251 172.901 407.822 173.078C407.394 173.255 406.935 173.345 406.471 173.345V173.345Z" fill="#E6E6E6"/>
<path d="M467.744 229.095H359.588C359.124 229.095 358.666 229.003 358.238 228.826C357.81 228.649 357.421 228.389 357.093 228.062C356.766 227.734 356.506 227.345 356.329 226.917C356.152 226.489 356.06 226.031 356.06 225.567C356.06 225.104 356.152 224.645 356.329 224.218C356.506 223.79 356.766 223.401 357.093 223.073C357.421 222.746 357.81 222.486 358.238 222.309C358.666 222.131 359.124 222.04 359.588 222.04H467.744C468.207 222.04 468.666 222.131 469.094 222.309C469.522 222.486 469.911 222.746 470.238 223.073C470.566 223.401 470.826 223.79 471.003 224.218C471.18 224.645 471.272 225.104 471.272 225.567C471.272 226.031 471.18 226.489 471.003 226.917C470.826 227.345 470.566 227.734 470.238 228.062C469.911 228.389 469.522 228.649 469.094 228.826C468.666 229.003 468.207 229.095 467.744 229.095V229.095Z" fill="#E6E6E6"/>
<path d="M467.744 243.033H359.588C358.653 243.032 357.757 242.66 357.096 241.998C356.436 241.337 356.065 240.44 356.065 239.506C356.065 238.571 356.436 237.674 357.096 237.013C357.757 236.351 358.653 235.979 359.588 235.978H467.744C468.679 235.979 469.575 236.351 470.236 237.013C470.896 237.674 471.267 238.571 471.267 239.506C471.267 240.44 470.896 241.337 470.236 241.998C469.575 242.66 468.679 243.032 467.744 243.033Z" fill="#E6E6E6"/>
<path d="M406.471 256.971H359.588C358.652 256.971 357.755 256.6 357.093 255.938C356.432 255.277 356.06 254.379 356.06 253.444C356.06 252.508 356.432 251.611 357.093 250.949C357.755 250.288 358.652 249.916 359.588 249.916H406.471C406.935 249.916 407.394 250.006 407.822 250.183C408.251 250.36 408.64 250.62 408.968 250.948C409.296 251.275 409.557 251.665 409.734 252.093C409.912 252.521 410.003 252.98 410.003 253.444C410.003 253.907 409.912 254.367 409.734 254.795C409.557 255.223 409.296 255.612 408.968 255.94C408.64 256.267 408.251 256.527 407.822 256.704C407.394 256.881 406.935 256.972 406.471 256.971V256.971Z" fill="#E6E6E6"/>
<path d="M316.439 183.819H251.326C249.581 183.817 247.908 183.123 246.674 181.889C245.441 180.655 244.746 178.982 244.744 177.237V134.521C244.746 132.776 245.441 131.103 246.674 129.87C247.908 128.636 249.581 127.942 251.326 127.94H316.439C318.184 127.942 319.857 128.636 321.091 129.87C322.325 131.103 323.019 132.776 323.021 134.521V177.237C323.019 178.982 322.325 180.655 321.091 181.889C319.857 183.123 318.184 183.817 316.439 183.819Z" fill="#E6E6E6"/>
<path d="M311.863 133.277H255.904C254.315 133.279 252.792 133.91 251.668 135.034C250.544 136.157 249.912 137.68 249.91 139.269V172.488C249.912 174.077 250.544 175.601 251.668 176.724C252.792 177.848 254.315 178.48 255.904 178.483H291.587C298.552 178.476 305.229 175.706 310.154 170.781C315.078 165.857 317.848 159.18 317.855 152.215V139.269C317.853 137.68 317.221 136.157 316.098 135.034C314.975 133.911 313.452 133.279 311.863 133.277V133.277Z" fill="white"/>
<path d="M296.049 144.508L295.882 144.809C297.37 141.14 296.017 136.62 293.361 133.854C290.706 131.087 287.014 129.823 283.379 129.321C280.681 128.949 277.88 128.959 275.314 129.948C271.598 131.379 268.759 134.693 266.389 138.14C265.305 139.716 264.239 141.514 264.347 143.484C264.447 145.313 265.533 146.865 266.422 148.416C267.311 149.968 268.053 151.893 267.415 153.586C267.035 154.595 266.231 155.322 265.579 156.147C264.928 156.973 264.391 158.089 264.706 159.124C264.846 159.521 265.086 159.874 265.403 160.15C265.721 160.425 266.104 160.614 266.516 160.697C267.313 160.83 268.129 160.811 268.92 160.64L289.639 157.51C291.047 157.297 292.383 156.747 293.532 155.906C294.682 155.066 295.611 153.96 296.24 152.683C296.87 151.406 297.181 149.995 297.148 148.572C297.115 147.148 296.738 145.754 296.049 144.508V144.508Z" fill="#2F2E41"/>
<path d="M280.637 157.365C286.232 157.365 290.768 152.83 290.768 147.235C290.768 141.64 286.232 137.105 280.637 137.105C275.043 137.105 270.507 141.64 270.507 147.235C270.507 152.83 275.043 157.365 280.637 157.365Z" fill="#FFB9B9"/>
<path d="M307.072 173.42C302.582 176.716 297.156 178.489 291.587 178.483H260.502C260.439 178.432 260.38 178.381 260.317 178.328L263.216 170.238C263.871 168.802 264.905 167.57 266.207 166.676C267.509 165.782 269.029 165.26 270.605 165.164L272.45 165.051L276.848 161.258C276.848 161.258 288.697 160.835 288.521 160.632L295.699 164.95L295.693 164.92L298.515 165.093C300.091 165.188 301.612 165.71 302.913 166.604C304.215 167.498 305.249 168.73 305.904 170.167L307.072 173.42Z" fill="#FFD7D7"/>
<path d="M290.246 137.833C289.985 136.45 288.574 135.817 287.365 135.51C283.858 134.616 280.211 134.415 276.628 134.921C274.016 135.293 271.341 136.115 269.446 138.154C267.918 139.87 267.052 142.076 267.004 144.374C266.927 145.748 267.234 147.116 267.89 148.326C268.184 148.889 268.619 149.366 269.153 149.71C269.687 150.054 270.301 150.253 270.935 150.288L271.057 150.711C276.143 150.002 280.867 146.838 283.843 142.146C283.284 144.14 282.173 145.936 280.637 147.325C284.071 145.951 287.056 143.651 289.259 140.68C289.861 139.881 290.445 138.885 290.246 137.833Z" fill="#2F2E41"/>
<path d="M316.439 104.551H251.326C249.581 104.549 247.908 103.855 246.674 102.621C245.441 101.387 244.746 99.7137 244.744 97.9687V55.2533C244.746 53.5083 245.441 51.8353 246.674 50.6014C247.908 49.3675 249.581 48.6734 251.326 48.6714H316.439C318.184 48.6734 319.857 49.3675 321.091 50.6014C322.325 51.8353 323.019 53.5083 323.021 55.2533V97.9687C323.019 99.7137 322.325 101.387 321.091 102.621C319.857 103.855 318.184 104.549 316.439 104.551Z" fill="#CCCCCC"/>
<path d="M311.863 54.0091H255.904C254.316 54.011 252.792 54.6428 251.669 55.7659C250.545 56.8891 249.912 58.4121 249.91 60.0009V93.2197C249.912 94.809 250.544 96.3325 251.668 97.4562C252.792 98.58 254.315 99.2123 255.904 99.2145H291.587C298.552 99.2089 305.23 96.4396 310.155 91.5147C315.08 86.5898 317.849 79.9118 317.855 72.947V60.0009C317.853 58.4122 317.221 56.8892 316.098 55.7658C314.975 54.6425 313.452 54.0107 311.863 54.0091V54.0091Z" fill="white"/>
<path d="M270.434 60.4534C273.069 60.4534 275.206 58.3169 275.206 55.6814C275.206 53.0459 273.069 50.9094 270.434 50.9094C267.798 50.9094 265.662 53.0459 265.662 55.6814C265.662 58.3169 267.798 60.4534 270.434 60.4534Z" fill="#2F2E41"/>
<path d="M278.069 78.5868C284.745 78.5868 290.158 73.1744 290.158 66.4979C290.158 59.8213 284.745 54.4089 278.069 54.4089C271.392 54.4089 265.98 59.8213 265.98 66.4979C265.98 73.1744 271.392 78.5868 278.069 78.5868Z" fill="#2F2E41"/>
<path d="M279.069 78.5838C284.495 78.5838 288.893 74.1856 288.893 68.7602C288.893 63.3347 284.495 58.9365 279.069 58.9365C273.644 58.9365 269.246 63.3347 269.246 68.7602C269.246 74.1856 273.644 78.5838 279.069 78.5838Z" fill="#9E616A"/>
<path d="M285.741 58.7463C284.019 57.6969 282.047 57.1292 280.031 57.1026C278.016 57.076 276.03 57.5915 274.281 58.5952C272.533 59.5989 271.086 61.0539 270.092 62.8081C269.099 64.5623 268.594 66.5512 268.632 68.5669C273.638 69.8237 278.897 70.7855 284.235 68.8676L285.496 65.7822L286.239 68.8698C287.865 69.5343 289.494 70.0965 291.124 68.8634C291.191 66.8534 290.729 64.8611 289.784 63.0857C288.839 61.3103 287.445 59.814 285.741 58.7463V58.7463Z" fill="#2F2E41"/>
<path d="M265.991 42.7273C264.315 42.0122 262.473 41.7802 260.673 42.0576C258.872 42.3349 257.186 43.1106 255.803 44.2967C254.451 45.5167 253.422 47.0522 252.807 48.7665C252.192 50.4807 252.011 52.3204 252.28 54.1216C252.821 57.7851 255.048 60.9399 257.101 64.0221C259.154 67.1042 261.16 70.4815 261.157 74.1848C261.156 76.8521 260.096 79.4099 258.212 81.2972C256.327 83.1846 253.77 84.2475 251.103 84.2528C254.234 85.6004 257.501 86.9745 260.906 86.8148C264.31 86.655 267.879 84.4664 268.434 81.1036C268.834 78.6807 267.645 76.318 266.654 74.0712C265.039 70.4102 263.872 66.5677 263.177 62.6271C262.846 60.7463 262.631 58.769 263.244 56.9604C263.732 55.6202 264.638 54.4723 265.828 53.6861C267.018 52.8999 268.43 52.517 269.854 52.5938L270.979 51.5817C271.172 49.7704 270.795 47.944 269.901 46.3569C269.007 44.7699 267.64 43.5011 265.991 42.7273V42.7273Z" fill="#2F2E41"/>
<path d="M305.055 95.4901C300.988 97.9335 296.332 99.2213 291.587 99.2145H257.913L257.859 99.1698L260.758 91.0774C261.413 89.641 262.447 88.41 263.749 87.5167C265.051 86.6233 266.571 86.1011 268.147 86.0062L269.992 85.893L274.389 82.1001C274.389 82.1001 286.239 81.674 286.063 81.4714L293.241 85.7887L293.235 85.7619L296.057 85.9347C297.633 86.0286 299.154 86.5503 300.456 87.4439C301.758 88.3374 302.791 89.5688 303.446 91.0059L305.055 95.4901Z" fill="#FFD7D7"/>
<path d="M316.439 267.445H251.326C249.581 267.443 247.908 266.749 246.674 265.515C245.441 264.281 244.746 262.608 244.744 260.863V218.148C244.746 216.403 245.441 214.73 246.674 213.496C247.908 212.262 249.581 211.568 251.326 211.566H316.439C318.184 211.568 319.857 212.262 321.091 213.496C322.325 214.73 323.019 216.403 323.021 218.148V260.863C323.019 262.608 322.325 264.281 321.091 265.515C319.857 266.749 318.184 267.443 316.439 267.445Z" fill="#E6E6E6"/>
<path d="M311.863 216.904H255.904C254.315 216.905 252.792 217.537 251.668 218.66C250.544 219.783 249.912 221.307 249.91 222.896V256.114C249.912 257.704 250.544 259.227 251.668 260.351C252.792 261.475 254.315 262.107 255.904 262.109H291.587C298.552 262.102 305.229 259.333 310.154 254.408C315.078 249.483 317.848 242.806 317.855 235.842V222.896C317.853 221.307 317.221 219.784 316.098 218.66C314.975 217.537 313.452 216.905 311.863 216.904V216.904Z" fill="white"/>
<path d="M283.834 238.036C291.278 238.036 297.312 232.001 297.312 224.558C297.312 217.114 291.278 211.079 283.834 211.079C276.39 211.079 270.356 217.114 270.356 224.558C270.356 232.001 276.39 238.036 283.834 238.036Z" fill="#2F2E41"/>
<path d="M283.84 239.806C290.489 239.806 295.88 234.416 295.88 227.766C295.88 221.116 290.489 215.725 283.84 215.725C277.19 215.725 271.799 221.116 271.799 227.766C271.799 234.416 277.19 239.806 283.84 239.806Z" fill="#FFB8B8"/>
<path d="M307.924 256.397C303.285 260.101 297.523 262.115 291.587 262.109H261.559L264.408 254.163C265.063 252.726 266.097 251.495 267.399 250.601C268.7 249.707 270.221 249.184 271.797 249.089L273.642 248.975L278.039 245.182C278.039 245.182 289.889 244.759 289.713 244.557L296.891 248.874L296.885 248.844L299.706 249.017C301.283 249.112 302.803 249.635 304.105 250.529C305.407 251.423 306.441 252.654 307.096 254.091L307.924 256.397Z" fill="#FFD7D7"/>
<path d="M296.543 223.543C296.627 222.644 296.666 221.741 296.659 220.838C296.708 219.053 296.381 217.277 295.698 215.626C294.859 213.798 293.363 212.352 291.507 211.577C289.668 210.835 287.612 210.837 285.774 211.582C284.157 210.469 282.283 209.787 280.328 209.599C279.35 209.521 278.366 209.68 277.462 210.064C276.558 210.447 275.76 211.044 275.137 211.803C274.869 212.221 274.566 212.616 274.23 212.981C273.268 213.872 271.806 213.743 270.527 213.561C271.101 214.053 271.674 214.544 272.248 215.036C271.554 215.217 270.859 215.398 270.165 215.58C270.975 216.071 271.785 216.563 272.595 217.054C270.244 218.466 269.175 221.547 269.457 224.345C269.724 226.994 271.003 229.417 272.532 231.57C273.142 230.283 273.011 228.743 273.001 227.293C272.995 226.823 273.024 226.353 273.086 225.887C278.254 227.125 283.653 227.92 289.128 225.953L290.227 223.264C290.381 223.28 290.536 223.295 290.69 223.311L291.326 225.956C292.77 226.546 294.216 227.061 295.663 226.519C295.733 226.928 295.776 227.345 295.808 227.745C295.932 227.266 296.04 226.783 296.137 226.299C296.329 226.196 296.512 226.079 296.685 225.949C296.72 225.144 296.672 224.338 296.543 223.543V223.543Z" fill="#2F2E41"/>
<path d="M498.427 12.3993H217.589C217.172 12.3988 216.772 12.2329 216.477 11.938C216.183 11.6431 216.017 11.2433 216.016 10.8262V1.57306C216.017 1.156 216.183 0.756148 216.477 0.461241C216.772 0.166334 217.172 0.00045465 217.589 -1.90735e-06H498.427C498.844 0.000453073 499.244 0.166334 499.539 0.461241C499.834 0.756148 500 1.156 500 1.57306V10.8262C500 11.2433 499.834 11.6431 499.539 11.938C499.244 12.2329 498.844 12.3988 498.427 12.3993V12.3993Z" fill="#E4E4E4"/>
<path d="M225.145 7.98166C226.379 7.98166 227.379 6.98176 227.379 5.74831C227.379 4.51487 226.379 3.51496 225.145 3.51496C223.912 3.51496 222.912 4.51487 222.912 5.74831C222.912 6.98176 223.912 7.98166 225.145 7.98166Z" fill="white"/>
<path d="M233.622 7.98166C234.856 7.98166 235.856 6.98176 235.856 5.74831C235.856 4.51487 234.856 3.51496 233.622 3.51496C232.389 3.51496 231.389 4.51487 231.389 5.74831C231.389 6.98176 232.389 7.98166 233.622 7.98166Z" fill="white"/>
<path d="M242.1 7.98166C243.333 7.98166 244.333 6.98176 244.333 5.74831C244.333 4.51487 243.333 3.51496 242.1 3.51496C240.866 3.51496 239.867 4.51487 239.867 5.74831C239.867 6.98176 240.866 7.98166 242.1 7.98166Z" fill="white"/>
<path d="M490.121 4.21113H480.36C480.168 4.21113 479.984 4.13494 479.848 3.99933C479.713 3.86373 479.636 3.67981 479.636 3.48804C479.636 3.29626 479.713 3.11234 479.848 2.97673C479.984 2.84113 480.168 2.76495 480.36 2.76495H490.121C490.313 2.76495 490.497 2.84113 490.633 2.97673C490.768 3.11234 490.844 3.29626 490.844 3.48804C490.844 3.67981 490.768 3.86373 490.633 3.99933C490.497 4.13494 490.313 4.21113 490.121 4.21113V4.21113Z" fill="white"/>
<path d="M490.121 6.92269H480.36C480.265 6.92269 480.171 6.90399 480.083 6.86765C479.995 6.83131 479.915 6.77805 479.848 6.71091C479.781 6.64377 479.728 6.56405 479.692 6.47632C479.655 6.38859 479.636 6.29456 479.636 6.19961C479.636 6.10465 479.655 6.01063 479.692 5.9229C479.728 5.83517 479.781 5.75546 479.848 5.68831C479.915 5.62117 479.995 5.56791 480.083 5.53157C480.171 5.49523 480.265 5.47653 480.36 5.47653H490.121C490.216 5.47653 490.31 5.49523 490.398 5.53157C490.486 5.56791 490.565 5.62117 490.633 5.68831C490.7 5.75546 490.753 5.83517 490.789 5.9229C490.826 6.01063 490.844 6.10465 490.844 6.19961C490.844 6.29456 490.826 6.38859 490.789 6.47632C490.753 6.56405 490.7 6.64377 490.633 6.71091C490.565 6.77805 490.486 6.83131 490.398 6.86765C490.31 6.90399 490.216 6.92269 490.121 6.92269V6.92269Z" fill="white"/>
<path d="M490.121 9.63427H480.36C480.168 9.63427 479.984 9.55809 479.848 9.42249C479.713 9.28688 479.636 9.10296 479.636 8.91118C479.636 8.71941 479.713 8.53549 479.848 8.39989C479.984 8.26428 480.168 8.18809 480.36 8.18809H490.121C490.313 8.18809 490.497 8.26428 490.633 8.39989C490.768 8.53549 490.844 8.71941 490.844 8.91118C490.844 9.10296 490.768 9.28688 490.633 9.42249C490.497 9.55809 490.313 9.63427 490.121 9.63427V9.63427Z" fill="white"/>
<path d="M441.096 95.0369C443.327 95.0369 445.135 93.2286 445.135 90.9979C445.135 88.7673 443.327 86.959 441.096 86.959C438.866 86.959 437.057 88.7673 437.057 90.9979C437.057 93.2286 438.866 95.0369 441.096 95.0369Z" fill="#FFD7D7"/>
<path d="M454.212 95.0369C456.443 95.0369 458.251 93.2286 458.251 90.9979C458.251 88.7673 456.443 86.959 454.212 86.959C451.982 86.959 450.174 88.7673 450.174 90.9979C450.174 93.2286 451.982 95.0369 454.212 95.0369Z" fill="#FFD7D7"/>
<path d="M467.329 95.0369C469.559 95.0369 471.368 93.2286 471.368 90.9979C471.368 88.7673 469.559 86.959 467.329 86.959C465.098 86.959 463.29 88.7673 463.29 90.9979C463.29 93.2286 465.098 95.0369 467.329 95.0369Z" fill="#FFD7D7"/>
<path d="M441.096 173.734C443.327 173.734 445.135 171.926 445.135 169.695C445.135 167.464 443.327 165.656 441.096 165.656C438.866 165.656 437.057 167.464 437.057 169.695C437.057 171.926 438.866 173.734 441.096 173.734Z" fill="#E6E6E6"/>
<path d="M454.212 173.734C456.443 173.734 458.251 171.926 458.251 169.695C458.251 167.464 456.443 165.656 454.212 165.656C451.982 165.656 450.174 167.464 450.174 169.695C450.174 171.926 451.982 173.734 454.212 173.734Z" fill="#E6E6E6"/>
<path d="M467.329 173.734C469.559 173.734 471.368 171.926 471.368 169.695C471.368 167.464 469.559 165.656 467.329 165.656C465.098 165.656 463.29 167.464 463.29 169.695C463.29 171.926 465.098 173.734 467.329 173.734Z" fill="#E6E6E6"/>
<path d="M441.096 257.508C443.327 257.508 445.135 255.7 445.135 253.47C445.135 251.239 443.327 249.431 441.096 249.431C438.866 249.431 437.057 251.239 437.057 253.47C437.057 255.7 438.866 257.508 441.096 257.508Z" fill="#E6E6E6"/>
<path d="M454.212 257.508C456.443 257.508 458.251 255.7 458.251 253.47C458.251 251.239 456.443 249.431 454.212 249.431C451.982 249.431 450.174 251.239 450.174 253.47C450.174 255.7 451.982 257.508 454.212 257.508Z" fill="#E6E6E6"/>
<path d="M467.329 257.508C469.559 257.508 471.368 255.7 471.368 253.47C471.368 251.239 469.559 249.431 467.329 249.431C465.098 249.431 463.29 251.239 463.29 253.47C463.29 255.7 465.098 257.508 467.329 257.508Z" fill="#E6E6E6"/>
<path d="M326.133 94.4823L305.315 81.3008C304.917 81.0491 304.459 80.9092 303.989 80.8958C303.518 80.8825 303.053 80.9962 302.642 81.2249C302.231 81.4537 301.889 81.789 301.652 82.1957C301.415 82.6023 301.293 83.0653 301.297 83.5358L301.502 106.264C301.507 106.868 301.721 107.452 302.108 107.916C302.495 108.38 303.03 108.696 303.623 108.811C304.217 108.925 304.831 108.831 305.363 108.544C305.894 108.257 306.31 107.794 306.54 107.236L309.249 100.647L316.801 115.537C317.16 116.241 317.783 116.774 318.535 117.02C319.287 117.265 320.105 117.201 320.81 116.844C321.515 116.486 322.05 115.863 322.296 115.112C322.542 114.361 322.48 113.542 322.124 112.837L314.4 97.6084L324.299 99.2748C324.895 99.3752 325.507 99.2661 326.032 98.9662C326.557 98.6663 326.962 98.194 327.178 97.6295C327.394 97.065 327.408 96.4431 327.217 95.8694C327.027 95.2958 326.644 94.8056 326.133 94.4823V94.4823Z" fill="#3F3D56"/>
<path d="M62.5349 235.995C63.0406 235.445 63.4196 234.79 63.6451 234.077C63.8705 233.365 63.937 232.611 63.8398 231.87C63.7426 231.129 63.4841 230.418 63.0824 229.788C62.6808 229.158 62.1459 228.623 61.5153 228.222L65.7053 210.543L56.8373 213.783L54.2179 230.074C53.6141 231.178 53.4361 232.466 53.7179 233.692C53.9996 234.918 54.7215 235.999 55.7467 236.729C56.7718 237.458 58.0291 237.787 59.2802 237.652C60.5313 237.516 61.6893 236.927 62.5349 235.995V235.995Z" fill="#FFB8B8"/>
<path d="M83.8605 161.911L80.3015 171.063C80.3015 171.063 81.8268 180.214 79.2847 182.248C76.7425 184.282 77.7594 184.282 77.7594 185.807C77.6718 186.901 77.3549 187.965 76.8293 188.928C76.3038 189.892 75.5812 190.734 74.7088 191.4C72.6751 192.925 63.5233 223.939 63.5233 223.939H54.3716C54.6673 221.576 54.6673 219.185 54.3716 216.821C53.8632 213.262 55.8969 204.111 56.9138 202.585C57.9306 201.06 56.9138 199.026 56.9138 195.976C56.9138 192.925 58.9475 191.4 58.9475 186.316C58.9475 181.231 65.0486 141.574 64.5402 136.998C64.0318 132.422 69.6245 128.355 69.6245 128.355H74.7088L83.8605 161.911Z" fill="#E6E6E6"/>
<path d="M65.288 347.347H71.8753L75.0105 321.938H65.2874L65.288 347.347Z" fill="#FFB6B6"/>
<path d="M63.1378 342.835L73.6624 342.207V346.716L83.6684 353.627C84.1627 353.968 84.5349 354.458 84.7307 355.026C84.9266 355.594 84.9358 356.21 84.7571 356.783C84.5784 357.356 84.221 357.858 83.7372 358.213C83.2534 358.569 82.6686 358.761 82.0679 358.761H69.538L67.3783 354.301L66.535 358.761H61.8107L63.1378 342.835Z" fill="#2F2E41"/>
<path d="M102.292 347.347H108.879L112.014 321.938H102.291L102.292 347.347Z" fill="#FFB6B6"/>
<path d="M100.142 342.835L110.666 342.207V346.716L120.672 353.627C121.167 353.968 121.539 354.458 121.735 355.026C121.931 355.594 121.94 356.21 121.761 356.783C121.582 357.356 121.225 357.858 120.741 358.213C120.257 358.569 119.672 358.761 119.072 358.761H106.542L104.382 354.301L103.539 358.761H98.8146L100.142 342.835Z" fill="#2F2E41"/>
<path d="M62.4454 325.435H62.517L66.1713 284.12C65.3514 282.539 64.9353 280.779 64.96 278.998C64.9848 277.217 65.4496 275.469 66.313 273.911L66.4944 273.583L66.0241 271.403C65.4201 268.602 65.6973 265.683 66.8177 263.045L65.6122 224.506C61.3897 197.141 81.5131 179.294 81.5131 179.294H111.658L118.13 201.529C120.56 225.203 128.159 250.104 127.152 273.055C126.387 290.514 117.776 306.183 114.843 323.185L115.028 323.279C115.695 323.509 115.98 324.432 115.667 325.341C115.353 326.25 114.558 326.8 113.892 326.57L97.9718 326.016C97.3053 325.786 97.0194 324.863 97.3332 323.954C97.6469 323.045 98.4415 322.495 99.1079 322.725L100.19 323.272L108.028 281.615L108.284 274.332L107.757 266.071L95.17 230.702L85.9333 276.398L76.4984 325.895C76.7586 326.131 76.9412 326.44 77.0222 326.781C77.1032 327.123 77.0786 327.481 76.9519 327.808C76.8251 328.136 76.602 328.417 76.3121 328.615C76.0222 328.813 75.6791 328.918 75.3281 328.917H62.4454C62.2168 328.917 61.9904 328.872 61.7791 328.785C61.5679 328.697 61.376 328.569 61.2143 328.407C61.0527 328.246 60.9244 328.054 60.8369 327.843C60.7494 327.631 60.7044 327.405 60.7044 327.176C60.7044 326.948 60.7494 326.721 60.8369 326.51C60.9244 326.299 61.0527 326.107 61.2143 325.945C61.376 325.784 61.5679 325.655 61.7791 325.568C61.9904 325.48 62.2168 325.435 62.4454 325.435V325.435Z" fill="#2F2E41"/>
<path d="M59.9473 197.88C58.9576 197.88 58.3955 197.686 58.1778 197.27C57.8584 196.659 58.4127 195.861 59.0544 194.937C59.5305 194.333 59.9061 193.657 60.1665 192.934C60.5503 191.398 63.1407 152.619 61.5912 144.871C61.2328 143.078 61.5414 140.78 62.508 138.04C65.1486 130.559 68.753 128.259 75.9334 123.679C76.5162 123.308 77.1232 122.919 77.7542 122.514C78.5705 121.99 78.525 120.251 78.4769 118.409C78.4236 116.362 78.3682 114.245 79.371 112.922L79.4363 112.836L79.5415 112.811C81.9671 112.25 90.1249 111.209 94.9561 112.819L95.0228 112.841L95.0727 112.891C96.2203 114.039 96.3249 116.262 96.4261 118.411C96.5088 120.176 96.5872 121.842 97.2365 122.566C102.2 128.099 107.83 127.991 107.887 127.99L108.166 127.982L108.194 128.259C110.353 150.222 113.834 183.37 114.573 184.675C114.612 184.734 114.634 184.803 114.636 184.875C114.638 184.946 114.621 185.016 114.586 185.078C113.5 187.107 63.6775 197.88 59.9473 197.88Z" fill="#E6E6E6"/>
<path d="M92.3697 106.594C100.501 106.594 107.092 100.003 107.092 91.8719C107.092 83.7409 100.501 77.1495 92.3697 77.1495C84.2387 77.1495 77.6472 83.7409 77.6472 91.8719C77.6472 100.003 84.2387 106.594 92.3697 106.594Z" fill="#FFB8B8"/>
<path d="M51.9262 85.2988C54.4154 82.396 55.5988 78.5447 57.5888 75.2484C59.5787 71.9521 63.0416 69.0019 66.6999 69.769C69.2217 70.2978 71.1707 72.5231 72.1574 75.0041C73.1438 77.485 73.3288 80.221 73.5017 82.9013C73.4406 77.3932 77.0696 72.0533 82.0685 70.2957C87.0671 68.5382 93.0496 70.4987 96.1907 74.9238C97.5614 73.6533 99.3507 72.9299 101.219 72.8907C103.088 72.8515 104.906 73.4992 106.329 74.711C109.138 77.2222 109.76 82.0017 107.694 85.2047C106.656 86.7632 105.086 87.8893 103.277 88.3717C101.468 88.8541 99.5447 88.6595 97.869 87.8245L96.7081 88.8924C97.0088 90.0339 96.8988 91.2447 96.3972 92.3133C95.8956 93.3818 95.0344 94.2401 93.9641 94.738C92.2367 95.4357 89.7981 95.3196 89.1517 97.1323C88.7 98.3989 89.5443 99.7509 90.4424 100.724C91.3404 101.697 92.4066 102.703 92.5144 104.049C92.6774 106.082 90.5774 107.505 88.6684 107.934C86.328 108.402 83.9012 108.161 81.6986 107.242C79.496 106.322 77.6178 104.767 76.3045 102.774C76.2533 102.695 76.1977 102.617 76.1377 102.538C74.6491 100.635 73.5644 98.4478 72.9496 96.1108C72.3348 93.7739 72.203 91.3361 72.5622 88.9465C72.7114 88.0076 72.561 87.3092 71.9137 87.0869C69.1157 86.1258 61.2766 88.1429 58.9042 89.966C56.5316 91.7891 54.6317 94.2018 52.3465 96.1425C50.0612 98.0832 47.1491 99.5803 44.2475 99.0518C41.9236 98.6285 39.9466 96.9413 38.6168 94.9063C37.3628 92.8002 36.4259 90.5209 35.8363 88.1417C40.9751 91.1104 48.0082 89.8677 51.9262 85.2988Z" fill="#2F2E41"/>
<path d="M115.972 235.995C115.466 235.445 115.087 234.79 114.861 234.077C114.636 233.365 114.569 232.611 114.667 231.87C114.764 231.129 115.022 230.418 115.424 229.788C115.826 229.158 116.361 228.623 116.991 228.222L112.801 210.543L121.669 213.783L124.289 230.074C124.892 231.178 125.07 232.465 124.789 233.692C124.507 234.918 123.785 235.999 122.76 236.729C121.735 237.458 120.477 237.787 119.226 237.652C117.975 237.516 116.817 236.927 115.972 235.995H115.972Z" fill="#FFB8B8"/>
<path d="M94.6459 161.911L98.205 171.063C98.205 171.063 96.6797 180.214 99.2218 182.248C101.764 184.282 100.747 184.282 100.747 185.807C100.835 186.901 101.152 187.965 101.677 188.928C102.203 189.892 102.925 190.734 103.798 191.4C105.831 192.925 114.983 223.939 114.983 223.939H124.135C123.839 221.576 123.839 219.185 124.135 216.821C124.643 213.262 122.61 204.111 121.593 202.585C120.576 201.06 121.593 199.026 121.593 195.976C121.593 192.925 119.559 191.4 119.559 186.316C119.559 181.231 113.458 141.574 113.966 136.998C114.475 132.422 108.882 128.355 108.882 128.355H103.798L94.6459 161.911Z" fill="#E6E6E6"/>
</g>
<defs>
<clipPath id="clip0_2_71">
<rect width="500" height="359.233" fill="white"/>
</clipPath>
</defs>
</svg>
