<svg width="150" height="111" viewBox="0 0 150 111" fill="none" xmlns="http://www.w3.org/2000/svg">
<g clip-path="url(#clip0_2_7)">
<path d="M29.649 57.3848L27.6728 36.4367L21.7803 36.6399L26.4449 57.3262C26.0643 57.6457 25.7903 58.0737 25.6596 58.553C25.5288 59.0323 25.5476 59.5402 25.7133 60.0086C25.8789 60.477 26.1837 60.8836 26.5868 61.1742C26.9898 61.4647 27.472 61.6252 27.9687 61.6343C28.4655 61.6434 28.9532 61.5005 29.3666 61.2249C29.78 60.9493 30.0994 60.5541 30.2821 60.092C30.4648 59.63 30.5021 59.1232 30.3889 58.6394C30.2758 58.1556 30.0176 57.7179 29.649 57.3848L29.649 57.3848Z" fill="#FFB8B8"/>
<path d="M141.673 104.075C141.619 106.104 141.279 108.115 140.663 110.049C140.649 110.094 140.635 110.138 140.62 110.183H136.852C136.856 110.142 136.86 110.097 136.864 110.049C137.115 107.161 138.564 89.5841 136.832 86.5783C136.984 86.8223 141.964 94.8985 141.673 104.075Z" fill="#F0F0F0"/>
<path d="M141.068 109.903C141.002 109.997 140.934 110.091 140.864 110.183H134.953C134.998 110.103 135.05 110.009 135.11 109.903C136.087 108.14 138.977 102.872 141.659 97.4092C144.543 91.5392 147.187 85.4467 146.965 83.2415C147.033 83.7389 149.028 98.8998 141.068 109.903Z" fill="#F0F0F0"/>
<path d="M11.2472 100.997C11.3282 104.019 11.8344 107.014 12.7508 109.894C12.7712 109.961 12.7937 110.027 12.8157 110.094H18.4262C18.4203 110.034 18.4142 109.967 18.4083 109.894C18.0342 105.593 15.8774 79.4178 18.4563 74.9415C18.2305 75.3046 10.8114 87.3319 11.2472 100.997Z" fill="#F0F0F0"/>
<path d="M11.6683 109.894C11.7153 109.961 11.764 110.028 11.814 110.094H16.0229C15.991 110.037 15.954 109.97 15.9112 109.894C15.2158 108.639 13.1577 104.887 11.2473 100.997C9.19507 96.8173 7.31067 92.4787 7.46937 90.9085C7.4204 91.2624 5.99968 102.059 11.6683 109.894Z" fill="#F0F0F0"/>
<path d="M133.21 88.2225H74.6363C74.3487 88.2221 74.0731 88.1077 73.8697 87.9044C73.6664 87.7011 73.552 87.4254 73.5516 87.1379V72.608C73.552 72.3205 73.6664 72.0448 73.8697 71.8415C74.0731 71.6382 74.3487 71.5238 74.6363 71.5234H133.21C133.497 71.5238 133.773 71.6382 133.976 71.8415C134.18 72.0448 134.294 72.3205 134.294 72.608V87.1377C134.294 87.4252 134.18 87.7009 133.976 87.9043C133.773 88.1077 133.497 88.2221 133.21 88.2225V88.2225ZM74.6363 71.9564C74.4639 71.9568 74.2988 72.0254 74.1769 72.1473C74.0551 72.2691 73.9864 72.4343 73.9861 72.6066V87.1362C73.9864 87.3086 74.0551 87.4737 74.1769 87.5956C74.2988 87.7174 74.4639 87.7861 74.6363 87.7864H133.21C133.382 87.7861 133.547 87.7175 133.669 87.5957C133.791 87.4738 133.86 87.3086 133.86 87.1362V72.608C133.86 72.4357 133.791 72.2705 133.669 72.1486C133.547 72.0268 133.382 71.9582 133.21 71.9578L74.6363 71.9564Z" fill="#3F3D56"/>
<path d="M69.1075 105.759C71.5477 105.759 73.5259 103.781 73.5259 101.341C73.5259 98.9005 71.5477 96.9223 69.1075 96.9223C66.6673 96.9223 64.6891 98.9005 64.6891 101.341C64.6891 103.781 66.6673 105.759 69.1075 105.759Z" fill="#E6E6E6"/>
<path d="M79.3122 98.5476C79.1169 98.5476 78.9296 98.6252 78.7915 98.7633C78.6534 98.9014 78.5758 99.0887 78.5758 99.284C78.5758 99.4793 78.6534 99.6666 78.7915 99.8047C78.9296 99.9428 79.1169 100.02 79.3122 100.02H114.029C114.125 100.021 114.221 100.002 114.311 99.9649C114.4 99.9281 114.481 99.874 114.55 99.8057C114.618 99.7375 114.673 99.6564 114.71 99.5672C114.747 99.4779 114.766 99.3822 114.766 99.2855C114.767 99.1888 114.748 99.093 114.711 99.0036C114.674 98.9142 114.62 98.8329 114.552 98.7644C114.484 98.6958 114.403 98.6414 114.313 98.6043C114.224 98.5671 114.128 98.5478 114.032 98.5476H79.3122Z" fill="#E6E6E6"/>
<path d="M79.3122 102.966C79.1169 102.966 78.9294 103.043 78.7911 103.181C78.6527 103.319 78.5747 103.506 78.5743 103.701C78.574 103.896 78.6512 104.084 78.789 104.222C78.9268 104.361 79.114 104.439 79.3092 104.439H94.2508C94.4461 104.439 94.6334 104.361 94.7715 104.223C94.9096 104.085 94.9872 103.898 94.9872 103.703C94.9872 103.507 94.9096 103.32 94.7715 103.182C94.6334 103.044 94.4461 102.966 94.2508 102.966H79.3122Z" fill="#E6E6E6"/>
<path d="M83.7372 84.2208C86.1775 84.2208 88.1556 82.2427 88.1556 79.8024C88.1556 77.3622 86.1775 75.384 83.7372 75.384C81.297 75.384 79.3188 77.3622 79.3188 79.8024C79.3188 82.2427 81.297 84.2208 83.7372 84.2208Z" fill="#E6E6E6"/>
<path d="M93.9419 77.0094C93.7466 77.0094 93.5593 77.0869 93.4212 77.225C93.2831 77.3631 93.2056 77.5504 93.2056 77.7457C93.2056 77.941 93.2831 78.1283 93.4212 78.2664C93.5593 78.4045 93.7466 78.4821 93.9419 78.4821H128.658C128.854 78.4821 129.041 78.4045 129.179 78.2664C129.317 78.1283 129.395 77.941 129.395 77.7457C129.395 77.5504 129.317 77.3631 129.179 77.225C129.041 77.0869 128.854 77.0094 128.658 77.0094H93.9419Z" fill="#E6E6E6"/>
<path d="M93.9419 81.428C93.7466 81.428 93.5593 81.5055 93.4212 81.6436C93.2831 81.7817 93.2056 81.969 93.2056 82.1643C93.2056 82.3596 93.2831 82.5469 93.4212 82.685C93.5593 82.8231 93.7466 82.9007 93.9419 82.9007H108.881C109.076 82.9007 109.263 82.8231 109.401 82.685C109.539 82.5469 109.617 82.3596 109.617 82.1643C109.617 81.969 109.539 81.7817 109.401 81.6436C109.263 81.5055 109.076 81.428 108.881 81.428H93.9419Z" fill="#E6E6E6"/>
<path d="M121.831 52.2576H63.2576C62.9701 52.2572 62.6944 52.1428 62.4911 51.9395C62.2877 51.7362 62.1733 51.4605 62.173 51.173V1.08464C62.1733 0.797088 62.2877 0.521425 62.4911 0.318097C62.6944 0.11477 62.9701 0.000376337 63.2576 0H121.831C122.119 0.000376337 122.394 0.11477 122.598 0.318097C122.801 0.521425 122.915 0.797088 122.916 1.08464V51.1728C122.915 51.4603 122.801 51.736 122.598 51.9394C122.394 52.1427 122.119 52.2571 121.831 52.2574V52.2576ZM63.2576 0.433C63.0853 0.433376 62.9201 0.502001 62.7982 0.623858C62.6764 0.745715 62.6078 0.910881 62.6074 1.08321V51.1728C62.6078 51.3451 62.6764 51.5103 62.7982 51.6321C62.9201 51.754 63.0853 51.8226 63.2576 51.823H121.831C122.003 51.8227 122.169 51.754 122.29 51.6322C122.412 51.5103 122.481 51.3451 122.481 51.1728V1.08464C122.481 0.912304 122.412 0.747139 122.29 0.625281C122.168 0.503424 122.003 0.434799 121.831 0.434424L63.2576 0.433Z" fill="#3F3D56"/>
<path d="M72.3585 13.2263C74.7987 13.2263 76.7769 11.2482 76.7769 8.80794C76.7769 6.36773 74.7987 4.38954 72.3585 4.38954C69.9182 4.38954 67.9401 6.36773 67.9401 8.80794C67.9401 11.2482 69.9182 13.2263 72.3585 13.2263Z" fill="#FFD7D7"/>
<path d="M82.5631 5.86227C82.3678 5.86227 82.1805 5.93986 82.0424 6.07795C81.9044 6.21605 81.8268 6.40334 81.8268 6.59864C81.8268 6.79394 81.9044 6.98123 82.0424 7.11933C82.1805 7.25742 82.3678 7.33501 82.5631 7.33501H117.28C117.475 7.33501 117.662 7.25742 117.8 7.11933C117.938 6.98123 118.016 6.79394 118.016 6.59864C118.016 6.40334 117.938 6.21605 117.8 6.07795C117.662 5.93986 117.475 5.86227 117.28 5.86227H82.5631Z" fill="#CCCCCC"/>
<path d="M82.5631 10.2809C82.3678 10.2809 82.1805 10.3585 82.0424 10.4966C81.9044 10.6347 81.8268 10.822 81.8268 11.0172C81.8268 11.2125 81.9044 11.3998 82.0424 11.5379C82.1805 11.676 82.3678 11.7536 82.5631 11.7536H97.5018C97.6971 11.7536 97.8844 11.676 98.0225 11.5379C98.1606 11.3998 98.2382 11.2125 98.2382 11.0172C98.2382 10.822 98.1606 10.6347 98.0225 10.4966C97.8844 10.3585 97.6971 10.2809 97.5018 10.2809H82.5631Z" fill="#CCCCCC"/>
<path d="M47.3822 105.928H42.912L40.2705 68.7441L40.1689 78.1926L30.4157 104.201L26.5551 101.153L32.9556 75.2463L29.9077 60.8197H49.8205L47.3822 105.928Z" fill="#2F2E41"/>
<path d="M40.2705 14.8984C43.1882 14.8984 45.5535 12.5331 45.5535 9.61542C45.5535 6.69771 43.1882 4.33244 40.2705 4.33244C37.3528 4.33244 34.9875 6.69771 34.9875 9.61542C34.9875 12.5331 37.3528 14.8984 40.2705 14.8984Z" fill="#FFB8B8"/>
<path d="M50.4303 63.6644C41.7991 61.4496 33.7007 59.9571 28.6888 62.6484C29.5666 53.4213 28.5512 41.6427 25.5393 29.3321C24.5612 25.3335 25.2246 21.7305 28.7904 19.6734L33.5654 16.9303L40.8803 17.1335L44.6968 19.2451C46.5632 20.1776 48.0741 21.6938 49.0003 23.5633C49.9264 25.4328 50.2171 27.5534 49.8282 29.6032C47.7774 40.3941 48.8856 52.0406 50.4303 63.6644Z" fill="#3F3D56"/>
<path d="M30.7208 37.859L21.1708 37.2495C21.9169 27.8547 24.0402 22.719 27.2665 20.9942L30.7208 25.058V37.859Z" fill="#3F3D56"/>
<path d="M135.747 45.7597H77.1737C76.8862 45.7594 76.6105 45.645 76.4072 45.4417C76.2038 45.2384 76.0894 44.9627 76.0891 44.6751V18.97C76.0894 18.6824 76.2038 18.4067 76.4072 18.2034C76.6105 18 76.8862 17.8856 77.1737 17.8853H135.747C136.035 17.8856 136.311 18 136.514 18.2034C136.717 18.4067 136.832 18.6824 136.832 18.97V44.6751C136.832 44.9627 136.717 45.2384 136.514 45.4417C136.311 45.645 136.035 45.7594 135.747 45.7597V45.7597Z" fill="#FFD7D7"/>
<path d="M89.1023 26.8448C88.907 26.8448 88.7197 26.9224 88.5816 27.0605C88.4435 27.1986 88.366 27.3859 88.366 27.5812C88.366 27.7765 88.4435 27.9638 88.5816 28.1019C88.7197 28.24 88.907 28.3176 89.1023 28.3176H123.819C124.014 28.3176 124.202 28.24 124.34 28.1019C124.478 27.9638 124.555 27.7765 124.555 27.5812C124.555 27.3859 124.478 27.1986 124.34 27.0605C124.202 26.9224 124.014 26.8448 123.819 26.8448H89.1023Z" fill="white"/>
<path d="M89.1023 31.1119C88.907 31.1119 88.7197 31.1895 88.5816 31.3275C88.4435 31.4656 88.366 31.6529 88.366 31.8482C88.366 32.0435 88.4435 32.2308 88.5816 32.3689C88.7197 32.507 88.907 32.5846 89.1023 32.5846H123.819C124.014 32.5846 124.202 32.507 124.34 32.3689C124.478 32.2308 124.555 32.0435 124.555 31.8482C124.555 31.6529 124.478 31.4656 124.34 31.3275C124.202 31.1895 124.014 31.1119 123.819 31.1119H89.1023Z" fill="white"/>
<path d="M89.1023 35.3273C88.907 35.3273 88.7197 35.4049 88.5816 35.543C88.4435 35.6811 88.366 35.8684 88.366 36.0637C88.366 36.259 88.4435 36.4462 88.5816 36.5843C88.7197 36.7224 88.907 36.8 89.1023 36.8H104.041C104.236 36.8 104.424 36.7224 104.562 36.5843C104.7 36.4462 104.777 36.259 104.777 36.0637C104.777 35.8684 104.7 35.6811 104.562 35.543C104.424 35.4049 104.236 35.3273 104.041 35.3273H89.1023Z" fill="white"/>
<path d="M42.0719 2.66364C41.5797 2.61203 41.1156 2.87395 40.6314 2.98103C39.6358 3.19926 38.6158 2.74695 37.5921 2.75081C36.7122 2.80084 35.8562 3.05631 35.0928 3.49673C34.4755 3.7885 33.9121 4.18294 33.4267 4.66325C32.9385 5.1513 32.6544 5.80676 32.6318 6.49665C32.6994 6.89182 32.6873 7.29654 32.596 7.68694C32.4928 7.88379 32.3703 8.06989 32.2303 8.24247C32.1036 8.44582 32.0227 8.67432 31.9933 8.91208C31.9638 9.14984 31.9864 9.39117 32.0596 9.6193C32.2647 10.0712 32.5421 10.4867 32.8809 10.8494C33.5396 11.6945 33.9523 12.7064 34.5434 13.6033C34.8013 13.9926 35.0906 14.3602 35.4084 14.7023C35.4604 14.7629 35.5238 14.8128 35.5949 14.849C35.6649 14.8736 35.739 14.8844 35.8132 14.8807C37.067 14.9165 38.3646 14.9441 39.5192 14.4522C39.889 14.324 40.2031 14.0716 40.4079 13.738C40.5744 13.2803 40.6047 12.7841 40.4951 12.3095C40.4426 11.781 40.4546 11.2481 40.5309 10.7224C40.5361 10.5449 40.6087 10.376 40.734 10.2502C40.8287 10.1914 40.9373 10.1585 41.0487 10.155C41.1601 10.1514 41.2705 10.1772 41.3688 10.2299C41.565 10.3332 41.7792 10.3978 41.9997 10.4203C42.4323 10.4203 42.706 9.92815 42.7934 9.49961C42.7457 9.1145 42.8027 8.72366 42.9585 8.36823C43.1142 8.0128 43.3629 7.70592 43.6783 7.47989C43.9755 7.10266 44.1796 6.66067 44.2741 6.18979C44.3685 5.7189 44.3506 5.23239 44.2218 4.76972C43.9367 3.87792 43.0638 2.7628 42.0719 2.66364Z" fill="#2F2E41"/>
<path d="M118.58 109.761H60.0065C59.719 109.76 59.4433 109.646 59.24 109.443C59.0366 109.239 58.9223 108.964 58.9219 108.676V94.1463C58.9222 93.8588 59.0366 93.5831 59.2399 93.3797C59.4432 93.1764 59.7189 93.062 60.0065 93.0617H118.58C118.867 93.0621 119.143 93.1765 119.346 93.3798C119.55 93.5831 119.664 93.8588 119.665 94.1463V108.676C119.664 108.963 119.55 109.239 119.346 109.442C119.143 109.646 118.867 109.76 118.58 109.761V109.761ZM60.0065 93.4947C59.8342 93.4951 59.669 93.5637 59.5472 93.6856C59.4253 93.8074 59.3567 93.9726 59.3563 94.1449V108.675C59.3567 108.847 59.4253 109.012 59.5472 109.134C59.669 109.256 59.8342 109.324 60.0065 109.325H118.58C118.752 109.324 118.917 109.256 119.039 109.134C119.161 109.012 119.23 108.847 119.23 108.675V94.1463C119.23 93.974 119.161 93.8088 119.039 93.687C118.917 93.5651 118.752 93.4965 118.58 93.4961L60.0065 93.4947Z" fill="#3F3D56"/>
<path d="M52.2033 56.572L50.2271 35.6239L44.3346 35.8271L48.9992 56.5135C48.6186 56.8329 48.3446 57.2609 48.2139 57.7402C48.0832 58.2196 48.1019 58.7274 48.2676 59.1958C48.4333 59.6642 48.738 60.0709 49.1411 60.3614C49.5441 60.6519 50.0263 60.8125 50.5231 60.8215C51.0198 60.8306 51.5075 60.6878 51.9209 60.4122C52.3343 60.1366 52.6538 59.7413 52.8364 59.2793C53.0191 58.8172 53.0564 58.3104 52.9433 57.8266C52.8301 57.3428 52.5719 56.9051 52.2033 56.572L52.2033 56.572Z" fill="#FFB8B8"/>
<path d="M52.2588 36.0303L43.3184 38.0622L42.912 23.4324L47.9918 23.6356L52.2588 36.0303Z" fill="#3F3D56"/>
<path d="M42.7705 105.562L49.2552 105.562H49.2555C50.3515 105.562 51.4026 105.997 52.1776 106.772C52.9526 107.547 53.388 108.598 53.3881 109.694V109.829L42.7707 109.829L42.7705 105.562Z" fill="#2F2E41"/>
<path d="M26.4835 100.428L31.935 103.94L31.9352 103.94C32.8565 104.533 33.5043 105.469 33.7361 106.54C33.9678 107.611 33.7646 108.731 33.1711 109.652L33.0984 109.765L24.1727 104.015L26.4835 100.428Z" fill="#2F2E41"/>
<path d="M150 109.777H0V110.183H150V109.777Z" fill="#CACACA"/>
</g>
<defs>
<clipPath id="clip0_2_7">
<rect width="150" height="110.183" fill="white"/>
</clipPath>
</defs>
</svg>
